<?xml version="1.0" encoding="UTF-8" standalone="no"?>
<svg
   xmlns:dc="http://purl.org/dc/elements/1.1/"
   xmlns:cc="http://creativecommons.org/ns#"
   xmlns:rdf="http://www.w3.org/1999/02/22-rdf-syntax-ns#"
   xmlns:svg="http://www.w3.org/2000/svg"
   xmlns="http://www.w3.org/2000/svg"
   class="logo_blades_in"
   version="1.1"
   viewBox="0 0 210 297"
   height="297mm"
   width="210mm">
  <defs
     id="defs2" />
  <metadata
     id="metadata5">
    <rdf:RDF>
      <cc:Work
         rdf:about="">
        <dc:format>image/svg+xml</dc:format>
        <dc:type
           rdf:resource="http://purl.org/dc/dcmitype/StillImage" />
        <dc:title></dc:title>
      </cc:Work>
    </rdf:RDF>
  </metadata>
  <g
     style="display:inline"
     class="aperture_blades">
    <g
       style="display:inline"
       class="aperture_blade-1">
      <path
         class="aperture_blade_path-1"
         d="m 81.766757,93.590384 c -0.662652,0.859743 -1.150305,1.85574 -1.418152,2.940009 -0.171919,0.695942 -0.241433,1.489539 -0.205335,2.253488 l -0.65834,-3.077057 z"
         style="display:inline;opacity:1;fill:#000000;fill-opacity:1;fill-rule:evenodd" />
    </g>
    <g
       style="display:inline"
       class="aperture_blade-2">
      <path
         class="aperture_blade_path-2"
         d="m 80.204973,99.453809 c 0.0057,0.04183 0.0097,0.08465 0.01607,0.126 0.276003,1.783781 1.194083,3.420881 2.53608,4.629871 l -2.478279,-1.56381 z"
         style="display:inline;opacity:1;fill:#000000;fill-opacity:1;fill-rule:evenodd" />
    </g>
    <g
       style="display:inline"
       class="aperture_blade-3">
      <path
         class="aperture_blade_path-3"
         d="m 85.046626,106.76359 -1.769418,-2.1256 c 0.450177,0.34228 0.937017,0.64227 1.458079,0.88564 0.900081,0.4204 1.875956,0.6643 2.861711,0.71607 0.253406,0.0133 0.503574,0.0127 0.751854,0.004 z"
         style="display:inline;opacity:1;fill:#000000;fill-opacity:1;fill-rule:evenodd" />
    </g>
    <g
       style="display:inline"
       class="aperture_blade-4">
      <path
         class="aperture_blade_path-4"
         d="m 91.905758,106.36036 -2.888536,-0.16994 c 1.250833,-0.15021 2.427875,-0.59012 3.504676,-1.32015 0.375006,-0.25423 0.645112,-0.47731 1.024598,-0.84571 0.07866,-0.0763 0.155155,-0.1537 0.230223,-0.23229 z"
         style="display:inline;opacity:1;fill:#000000;fill-opacity:1;fill-rule:evenodd" />
    </g>
    <g
       style="display:inline"
       class="aperture_blade-5">
      <path
         class="aperture_blade_path-5"
         transform="scale(0.26458333)"
         d="m 364.54789,382.20748 -8.45609,8.19291 c 3.69514,-4.53683 5.93574,-9.88113 6.50586,-15.61523 0.0814,-0.81938 0.10707,-2.30333 0.0898,-3.66407 z"
         style="display:inline;opacity:1;fill:#000000;fill-opacity:1;fill-rule:evenodd;stroke-width:3.77952766" />
    </g>
    <g
       style="display:inline"
       class="aperture_blade-6">
      <path
         class="aperture_blade_path-6"
         d="m 93.47079,92.63164 2.305123,2.216484 0.154218,2.686124 C 95.731313,95.679055 94.852228,93.930878 93.47079,92.63164 Z"
         style="display:inline;opacity:1;fill:#000000;fill-opacity:1;fill-rule:evenodd" />
    </g>
    <g
       style="display:inline"
       class="aperture_blade-7">
      <path
         class="aperture_blade_path-7"
         d="m 88.073517,90.488071 c -0.115257,4e-6 -0.227258,0.0024 -0.338596,0.0062 l 2.769385,-0.463843 2.461447,2.167701 c -0.415875,-0.332428 -0.825451,-0.596367 -1.345043,-0.85967 -1.141316,-0.578367 -2.276691,-0.850436 -3.547193,-0.850375 z"
         style="display:inline;opacity:1;fill:#000000;fill-opacity:1;fill-rule:evenodd" />
    </g>
    <g
       style="display:inline"
       class="aperture_blade-8">
      <path
         class="aperture_blade_path-8"
         transform="scale(0.26458333)"
         d="m 329.08594,342.21484 c -2.43709,0.28177 -4.70114,0.85394 -7.0293,1.76954 -4.4285,1.74156 -8.29163,4.43145 -11.37891,7.80468 l 6.62984,-8.67165 z"
         style="display:inline;opacity:1;fill:#000000;fill-opacity:1;fill-rule:evenodd;stroke-width:3.77952766" />
    </g>
  </g>
  <g
     style="display:inline"
     class="logo_text">
    <text
       class="logo_text_styling"
       y="110.62137"
       x="29.587103"
       style="font-style:normal;font-weight:normal;font-size:10.58333302px;line-height:1.25;font-family:sans-serif;letter-spacing:0px;word-spacing:0px;fill:#000000;fill-opacity:1;stroke:none;stroke-width:0.26458332"
       xml:space="preserve"><tspan
         style="font-style:normal;font-variant:normal;font-weight:normal;font-stretch:normal;font-size:35.27777863px;font-family:Righteous;-inkscape-font-specification:'Righteous, Normal';font-variant-ligatures:normal;font-variant-caps:normal;font-variant-numeric:normal;font-feature-settings:normal;text-align:start;writing-mode:lr-tb;text-anchor:start;stroke-width:0.26458332"
         y="110.62137"
         x="29.587103"
         class="text">THOR</tspan></text>
  </g>
  <g
     style="display:inline"
     class="logo_text_o">
    <path
       transform="scale(0.26458333)"
       class="logo_text_o_path"
       d="m 328.48231,419.86168 c -8.54505,-0.80782 -16.91197,-3.90298 -23.62897,-8.74101 -2.38371,-1.71691 -4.23085,-3.32794 -6.60591,-5.76153 -5.4036,-5.53674 -8.9792,-11.38411 -11.38097,-18.61189 -2.94851,-8.87314 -3.15733,-18.95481 -0.58107,-28.05473 3.00043,-10.59821 9.79835,-20.04449 19.10472,-26.54758 6.34112,-4.43105 14.4041,-7.39435 22.44205,-8.24789 3.08115,-0.32718 8.91298,-0.22063 11.6962,0.21369 12.9984,2.02839 23.99844,8.54696 31.69358,18.78146 1.95479,2.59986 3.32299,4.82554 4.69481,7.63715 8.19398,16.79399 6.14772,36.23477 -5.37984,51.11172 -1.62338,2.09507 -5.6256,6.13232 -7.784,7.85214 -7.49828,5.97464 -16.50781,9.56674 -26.03389,10.37971 -2.05165,0.17509 -6.32746,0.16926 -8.23671,-0.0112 z m 7.15477,-18.52095 c 7.82646,-0.78749 14.81844,-4.52104 19.95857,-10.65742 7.10273,-8.47935 8.85584,-20.2934 4.51443,-30.42228 -1.56171,-3.64362 -3.28654,-6.22128 -6.10514,-9.12381 -2.66749,-2.74692 -4.96916,-4.42437 -8.31379,-6.05905 -13.3818,-6.54034 -29.4509,-2.15435 -37.80887,10.31975 -2.47548,3.6946 -4.21056,8.37433 -4.76477,12.85121 -0.22826,1.84386 -0.18944,5.77213 0.0758,7.67402 1.88601,13.52206 13.25587,24.28488 26.90691,25.4703 1.34494,0.11679 4.11419,0.0904 5.53684,-0.0527 z"
       style="opacity:1;fill:#000000;fill-opacity:1;fill-rule:evenodd;stroke-width:0.14708409" />
  </g>
</svg>
